<svg width="22" height="22" viewBox="0 0 22 22" fill="none" xmlns="http://www.w3.org/2000/svg">
<path d="M6.57984 12.5923C8.10734 12.5923 9.3315 13.8283 9.3315 15.3667V19.0598C9.3315 20.5873 8.10734 21.8331 6.57984 21.8331H2.91817C1.4015 21.8331 0.166504 20.5873 0.166504 19.0598V15.3667C0.166504 13.8283 1.4015 12.5923 2.91817 12.5923H6.57984ZM19.0816 12.5923C20.5983 12.5923 21.8333 13.8283 21.8333 15.3667V19.0598C21.8333 20.5873 20.5983 21.8331 19.0816 21.8331H15.4199C13.8924 21.8331 12.6683 20.5873 12.6683 19.0598V15.3667C12.6683 13.8283 13.8924 12.5923 15.4199 12.5923H19.0816ZM6.57984 0.166748C8.10734 0.166748 9.3315 1.41258 9.3315 2.94116V6.63425C9.3315 8.17258 8.10734 9.40758 6.57984 9.40758H2.91817C1.4015 9.40758 0.166504 8.17258 0.166504 6.63425V2.94116C0.166504 1.41258 1.4015 0.166748 2.91817 0.166748H6.57984ZM19.0816 0.166748C20.5983 0.166748 21.8333 1.41258 21.8333 2.94116V6.63425C21.8333 8.17258 20.5983 9.40758 19.0816 9.40758H15.4199C13.8924 9.40758 12.6683 8.17258 12.6683 6.63425V2.94116C12.6683 1.41258 13.8924 0.166748 15.4199 0.166748H19.0816Z" fill="#356899"/>
</svg>
