<svg width="16" height="16" viewBox="0 0 16 16" fill="none" xmlns="http://www.w3.org/2000/svg">
<path d="M1.50001 -0.00300598L1.59001 0.00499415C1.68991 0.0232459 1.78189 0.0714876 1.8537 0.1433C1.92551 0.215112 1.97376 0.30709 1.99201 0.406994L2.00001 0.496994V2.70799C3.19665 1.35074 4.81806 0.439236 6.59953 0.122302C8.38101 -0.194631 10.2173 0.101726 11.8086 0.962989C13.4 1.82425 14.6523 3.19955 15.3612 4.86434C16.0701 6.52913 16.1937 8.38508 15.7119 10.1292C15.23 11.8733 14.1711 13.4025 12.708 14.4672C11.2449 15.5319 9.46415 16.0691 7.65639 15.9912C5.84862 15.9133 4.12065 15.2249 2.75459 14.0383C1.38854 12.8517 0.465087 11.2371 0.135007 9.45799C0.0281398 8.80371 -0.0153949 8.14064 0.00500723 7.47799C0.01649 7.34991 0.0768812 7.23118 0.173632 7.14646C0.270384 7.06175 0.396055 7.01757 0.524533 7.0231C0.653011 7.02864 0.774417 7.08346 0.863523 7.17619C0.952629 7.26891 1.00258 7.3924 1.00301 7.52099C0.985842 8.10828 1.02401 8.69587 1.11701 9.27599C1.41183 10.8663 2.24828 12.3055 3.48417 13.3489C4.72007 14.3922 6.27916 14.9754 7.89641 14.9993C9.51366 15.0232 11.0893 14.4863 12.3554 13.4798C13.6216 12.4734 14.5002 11.0596 14.8418 9.47862C15.1834 7.89768 14.9671 6.24722 14.2295 4.80778C13.4918 3.36833 12.2785 2.22874 10.7957 1.5827C9.31291 0.936656 7.65214 0.824039 6.0957 1.26399C4.53925 1.70394 3.18319 2.6693 2.25801 3.99599H4.99801L5.08801 4.00499C5.20329 4.02587 5.30758 4.08656 5.38268 4.17648C5.45778 4.2664 5.49892 4.37984 5.49892 4.49699C5.49892 4.61415 5.45778 4.72759 5.38268 4.81751C5.30758 4.90743 5.20329 4.96812 5.08801 4.98899L4.99801 4.99699H1.50001L1.41001 4.98899C1.30997 4.97068 1.21789 4.92229 1.14606 4.85028C1.07424 4.77828 1.02607 4.68608 1.00801 4.58599L1.00001 4.49599V0.495994L1.00801 0.405994C1.02644 0.306272 1.07477 0.214514 1.14656 0.142895C1.21836 0.0712751 1.31024 0.0231811 1.41001 0.00499415L1.50001 -0.00300598ZM7.50001 3.99699L7.59001 4.00499C7.68991 4.02325 7.78189 4.07149 7.8537 4.1433C7.92551 4.21511 7.97375 4.30709 7.99201 4.40699L8.00001 4.49699V7.99999H10L10.09 8.00799C10.2047 8.02942 10.3083 8.09028 10.3828 8.18004C10.4574 8.2698 10.4982 8.38281 10.4982 8.49949C10.4982 8.61618 10.4574 8.72918 10.3828 8.81895C10.3083 8.90871 10.2047 8.96957 10.09 8.99099L10 8.99999H7.50001L7.41001 8.99199C7.3101 8.97374 7.21813 8.9255 7.14631 8.85369C7.0745 8.78188 7.02626 8.6899 7.00801 8.58999L7.00001 8.49999V4.49799L7.00801 4.40799C7.02626 4.30809 7.0745 4.21611 7.14631 4.1443C7.21813 4.07249 7.3101 4.02425 7.41001 4.00599L7.50001 3.99799V3.99699Z" fill="#95969D"/>
</svg>
