<svg width="23" height="24" viewBox="0 0 23 24" fill="none" xmlns="http://www.w3.org/2000/svg">
<path d="M21.85 6.8249C21.85 8.1974 21.3048 9.51368 20.3343 10.4842C19.3638 11.4547 18.0475 11.9999 16.675 11.9999C15.3025 11.9999 13.9862 11.4547 13.0157 10.4842C12.0452 9.51368 11.5 8.1974 11.5 6.8249C11.5 5.45241 12.0452 4.13613 13.0157 3.16562C13.9862 2.19512 15.3025 1.6499 16.675 1.6499C18.0475 1.6499 19.3638 2.19512 20.3343 3.16562C21.3048 4.13613 21.85 5.45241 21.85 6.8249ZM17.25 4.5249C17.25 4.3724 17.1894 4.22615 17.0816 4.11832C16.9737 4.01048 16.8275 3.9499 16.675 3.9499C16.5225 3.9499 16.3762 4.01048 16.2684 4.11832C16.1606 4.22615 16.1 4.3724 16.1 4.5249V6.2499H14.375C14.2225 6.2499 14.0762 6.31048 13.9684 6.41832C13.8606 6.52615 13.8 6.6724 13.8 6.8249C13.8 6.9774 13.8606 7.12366 13.9684 7.23149C14.0762 7.33932 14.2225 7.3999 14.375 7.3999H16.1V9.1249C16.1 9.2774 16.1606 9.42366 16.2684 9.53149C16.3762 9.63932 16.5225 9.6999 16.675 9.6999C16.8275 9.6999 16.9737 9.63932 17.0816 9.53149C17.1894 9.42366 17.25 9.2774 17.25 9.1249V7.3999H18.975C19.1275 7.3999 19.2737 7.33932 19.3816 7.23149C19.4894 7.12366 19.55 6.9774 19.55 6.8249C19.55 6.6724 19.4894 6.52615 19.3816 6.41832C19.2737 6.31048 19.1275 6.2499 18.975 6.2499H17.25V4.5249ZM16.675 13.1499C17.2582 13.1505 17.8387 13.0704 18.4 12.9119V20.6249C18.3999 20.7309 18.3705 20.8348 18.315 20.9252C18.2596 21.0155 18.1802 21.0888 18.0857 21.1369C17.9912 21.185 17.8853 21.206 17.7796 21.1976C17.6739 21.1893 17.5726 21.1518 17.4869 21.0895L11.5 16.7356L5.51308 21.0895C5.42733 21.1518 5.32601 21.1893 5.22033 21.1976C5.11464 21.206 5.00871 21.185 4.91422 21.1369C4.81973 21.0888 4.74038 21.0155 4.68492 20.9252C4.62946 20.8348 4.60007 20.7309 4.59998 20.6249V5.6749C4.59998 4.9124 4.90288 4.18114 5.44204 3.64197C5.98121 3.1028 6.71248 2.7999 7.47498 2.7999H11.7955C11.0322 3.72521 10.5477 4.84851 10.3986 6.03875C10.2495 7.22898 10.442 8.43707 10.9535 9.52208C11.465 10.6071 12.2745 11.5243 13.2876 12.1666C14.3006 12.809 15.4754 13.15 16.675 13.1499Z" fill="#95969D"/>
</svg>
