<svg width="15" height="20" viewBox="0 0 15 20" fill="none" xmlns="http://www.w3.org/2000/svg">
<path d="M14.25 19.9981C14.0666 19.9987 13.8893 19.9351 13.7517 19.8196L9.43864 16.1674C8.31982 15.2201 6.68018 15.2201 5.56137 16.1674L1.24828 19.8196C1.1401 19.9112 1.00639 19.971 0.863299 19.9918C0.720208 20.0126 0.573846 19.9936 0.441874 19.9369C0.309902 19.8803 0.197959 19.7885 0.119552 19.6726C0.0411455 19.5568 -0.000374336 19.4218 2.5431e-06 19.2839V2.85688C0.000871069 2.09944 0.317221 1.37326 0.879641 0.837673C1.44206 0.302084 2.20462 0.000827091 3 0H12C12.7954 0.000827091 13.5579 0.302084 14.1204 0.837673C14.6828 1.37326 14.9991 2.09944 15 2.85688V19.2839C15 19.4733 14.921 19.655 14.7803 19.789C14.6397 19.9229 14.4489 19.9981 14.25 19.9981Z" fill="#CACBCE"/>
</svg>
