<svg width="26" height="26" viewBox="0 0 26 26" fill="none" xmlns="http://www.w3.org/2000/svg">
<path d="M8.02441 11.191L8.02441 4.36523" stroke="#356899" stroke-linecap="round" stroke-linejoin="round"/>
<path d="M18.5245 14.2354L18.5245 21.0611" stroke="#356899" stroke-linecap="round" stroke-linejoin="round"/>
<path fill-rule="evenodd" clip-rule="evenodd" d="M18.5832 9.4534C19.9869 9.4534 21.125 8.30706 21.125 6.89332C21.125 5.47959 19.9869 4.33325 18.5832 4.33325C17.1796 4.33325 16.0415 5.47959 16.0415 6.89332C16.0415 8.30706 17.1796 9.4534 18.5832 9.4534Z" stroke="#356899" stroke-linecap="round" stroke-linejoin="round"/>
<path fill-rule="evenodd" clip-rule="evenodd" d="M8.06675 21.6665C9.47037 21.6665 10.6085 20.5211 10.6085 19.1073C10.6085 17.6927 9.47037 16.5464 8.06675 16.5464C6.66312 16.5464 5.52497 17.6927 5.52497 19.1073C5.52497 20.5211 6.66312 21.6665 8.06675 21.6665Z" stroke="#356899" stroke-linecap="round" stroke-linejoin="round"/>
</svg>
